<?xml version="1.0" encoding="utf-8"?>
<!-- Generator: Adobe Illustrator 19.0.0, SVG Export Plug-In . SVG Version: 6.00 Build 0)  -->
<svg version="1.1" id="Layer_1" xmlns="http://www.w3.org/2000/svg" xmlns:xlink="http://www.w3.org/1999/xlink" x="0px" y="0px"
	 viewBox="0 0 500 500" style="enable-background:new 0 0 500 500;" xml:space="preserve">
<style type="text/css">
	.st0{fill:#FFC905;}
</style>
<g id="layer1">
	<path id="path3691" class="st0" d="M218.9,498.7c-31.4-3.5-73.1-18.2-100.2-35.3
		c-14.9-9.4-33.6-24.3-45.6-36.3C13.6,367.7-10.7,288.3,4.3,202C13.6,148.5,44.1,96,87.5,59c16.2-13.8,30.4-23.2,50.6-33.2
		c16.8-8.4,44.6-18.5,47-17c0.7,0.4,2.1,0.1,3.2-0.8c1.1-0.9,3.2-1.2,4.7-0.7s2.8,0.3,2.8-0.4c0-0.7,2-1.6,4.4-2
		c2.4-0.4,10.6-1.7,18-3c10.1-1.7,19.3-2.1,35.4-1.7c21.6,0.6,46.4,3.1,49,5c0.7,0.5,5.2,1.8,9.9,2.8c4.7,1,8.9,2.3,9.3,2.9
		c0.4,0.6,1.9,1.2,3.4,1.2c8.9,0,42.8,15.7,62.6,29c41.4,27.8,70.2,61.8,91.8,108.6c2.6,5.6,5.2,12.1,5.7,14.3
		c0.5,2.2,1.4,4.7,1.9,5.4c1.6,2.4,5.2,15.4,8.4,30.6c4.4,20.9,5.8,55.7,3.2,78.3c-7.5,65.1-40.4,125.2-90.9,165.9
		c-24,19.3-59.6,38.7-81.9,44.6c-2.2,0.6-8.4,2.3-13.6,3.8c-5.2,1.5-12.6,3.2-16.3,3.7c-3.7,0.6-7.7,1.3-8.9,1.7
		C284.3,498.6,225,499.3,218.9,498.7L218.9,498.7z M280.3,475.8c44.5-6.7,80.2-22.4,115.2-50.8c38.5-31.1,68.2-80,77.4-127
		c1.2-6.4,2.8-14.1,3.5-17.3c1.6-7.1,1.7-56.2,0.1-56.2c-0.6,0-1.9,2.6-2.9,5.8c-2.9,9.7-11.9,28-18.3,36.9
		c-6.4,8.9-19.3,21.8-26.1,26.2c-2.2,1.4-4.4,2.9-4.8,3.3c-1.8,1.9-15.2,8.3-23.1,11c-19.6,6.7-21,6.7-135.7,6.7
		c-87.8,0-108,0.3-109.2,1.8c-0.8,1-3,7.6-4.9,14.6c-7.5,28.7-7.4,51.5,0.2,73.4c6.7,19.2,17.9,34.3,34.8,47.1
		c8.8,6.6,36.4,21,40.4,21c1.3,0,2.8,0.5,3.3,1C234.8,477.7,259.5,478.9,280.3,475.8L280.3,475.8z M153.4,454.7
		c-13.3-18.1-17.4-24.5-22.3-34.9c-9-19.1-10.9-28.1-10.8-50.4c0.1-16.6,0.6-20.7,3.8-32c2.1-7.1,4.3-13.5,5-14.2s1.3-2.3,1.3-3.5
		s3-7,6.6-13c3.6-6,11.7-19.9,17.9-30.9c6.2-11,11.9-20.1,12.5-20.1c0.6,0,1-0.5,0.9-1c-0.3-1,1.6-4.8,7-14c1.5-2.6,3.6-6.3,4.5-8.2
		c0.9-1.9,2-3.7,2.4-4.1c0.4-0.4,1.7-2.5,2.9-4.8c1.2-2.2,11.3-19.7,22.3-38.8s22.2-38.4,24.8-42.9c2.6-4.5,5.2-8.8,5.9-9.5
		c0.7-0.7,1.3-2.1,1.3-3.1c0-1.9-23.9-26.3-25.8-26.3c-0.7,0-2-0.8-3-1.7c-6.8-6.4-23.2-14.2-37.7-17.9c-11.1-2.8-31.5-2.8-42.7,0
		c-23.8,6-46.5,20.1-69.5,42.9c-17.2,17.1-30.1,48.9-37.9,93.7c-1.9,11-1.9,46.6,0.1,57.7c5.5,31.3,10.6,48.1,21.5,70.6
		c18.2,37.5,46.9,70,81.9,93c5.5,3.6,27.2,15.5,28.4,15.6C155,457.3,154.4,456.1,153.4,454.7L153.4,454.7z M332.3,293.1
		c0.4-0.4-1.9-5.4-5.2-11c-3.3-5.6-6-10.5-6-10.8c0-0.3-3.1-5.5-6.8-11.4c-3.7-6-6.8-11.1-6.8-11.4c0-0.3-3.7-6.8-8.2-14.4
		s-8.2-14.1-8.2-14.4c0-0.3-2.3-4.4-5.2-9.1c-10.8-17.6-31.5-54.2-31.5-55.7c0-0.7-1.1-1.1-2.3-0.8c-1.9,0.4-17.6,25.1-23.6,37.2
		c-0.7,1.5-2.5,4.6-3.8,6.8c-1.4,2.2-4,6.8-6,10.2c-1.9,3.4-6.7,11.6-10.6,18.4c-3.9,6.7-10.8,18.7-15.3,26.6
		c-4.5,7.9-8.5,14.6-9,15c-0.5,0.4-1.6,2.2-2.5,4.1c-0.9,1.9-3.5,6.7-5.8,10.7c-2.3,4-3.9,8.2-3.5,9.2c0.6,1.5,14.7,1.8,80.2,1.8
		C295.8,293.8,331.9,293.5,332.3,293.1L332.3,293.1z M383.2,286.8c14-4.5,29.8-13,39.9-21.5c12.5-10.5,25.3-30.1,28.7-44
		c2-8.3,5.1-31.3,4.7-35.1c-0.2-1.8-0.8-8.2-1.3-14.2c-0.5-6-1.5-13-2.2-15.7c-0.7-2.6-2.2-8.7-3.3-13.5
		c-3.6-14.9-20.8-38.4-43.9-60c-32.9-30.7-67.6-48.8-109.9-57.4c-18.2-3.7-23.1-4.2-44.9-4.2c-17,0-28.1,0.6-36.1,2.2
		c-6.4,1.2-13.4,2.5-15.7,2.8c-6,0.9-24.2,6.5-32.7,10.2c-19.9,8.6-42.9,21.2-42.9,23.5c0,0.7,1.1,0.9,2.4,0.5
		c15-4.5,41.5-4.3,59.1,0.4c18.5,5,29.1,10.8,45.4,24.9c6.2,5.4,9.5,9,19.8,21.9c1.9,2.4,6.6,9.9,10.3,16.6
		c3.8,6.7,10.1,17.8,14,24.5c26.6,45.2,29.3,49.9,34.4,59.2c2.2,4.1,4.6,8.1,5.1,8.9c0.6,0.7,2.3,3.5,3.7,6.1
		c7,12.6,35.8,62.1,38.5,66.4c1.7,2.7,2.7,3,8.1,2.2C368,291.2,376.4,289,383.2,286.8L383.2,286.8z"/>
</g>
</svg>
